<svg width="212" height="59" fill="none" xmlns="http://www.w3.org/2000/svg"><path d="m121.221 49.736 5.755 2.907v-9.545l-5.755 2.88v3.758Z" fill="#0E6939"/><path d="M126.975 37.31v5.787l5.755-2.881-5.755-2.906Z" fill="#0F6B3A"/><path d="m126.975 43.097 5.755-2.881v9.544l-5.755 2.882v-9.545Z" fill="#13A650"/><path d="m103.98 42.951 11.507 5.813v9.544l-11.507-5.813v-9.544Z" fill="#8DC641"/><path d="m115.469 48.861 5.753-2.883v9.546l-5.753 2.882V48.86Z" fill="#2BB673"/><path d="m109.715 40.166 11.507 5.812-5.754 2.883-11.507-5.812 5.754-2.883Z" fill="#13A650"/><path d="m109.715 21.62 8.631 4.323 2.876-1.44v21.476l-11.507-5.813V21.62Z" fill="#0E6939"/><path d="m121.221 24.503 5.755-2.883v21.477l-5.755 2.881V24.502ZM106.84 5.813V20.18l11.506 5.763V11.625L106.84 5.812Z" fill="#8DC641"/><path d="m118.346 11.625 11.506-5.813V20.18l-11.506 5.764V11.625Z" fill="#2BB673"/><path d="M118.346 0 106.84 5.812l11.506 5.813 11.506-5.813L118.346 0Z" fill="#0F9548"/><path d="M140.382 16.132v12.32h-9.355v-9.754h-1.188v1.479l-2.87 1.428.005 15.71 4.053 2.04v-6.094h9.355v12.32h4.704V16.13h-4.704ZM154.911 37.138c-3.463 0-6.27-2.874-6.27-6.416 0-3.541 2.807-6.412 6.27-6.412 3.463 0 6.27 2.87 6.27 6.412s-2.807 6.416-6.27 6.416Zm0-16.035c-5.195 0-9.407 4.307-9.407 9.62 0 5.314 4.212 9.622 9.407 9.622 5.194 0 9.407-4.308 9.407-9.623 0-5.312-4.213-9.62-9.407-9.62Z" fill="#fff"/><path d="M211.038 21.102H170.43c-3.028 0-5.485 2.512-5.485 5.613 0 3.1 2.457 5.612 5.485 5.612h4.392c1.3 0 2.353 1.078 2.353 2.404 0 1.331-1.053 2.407-2.353 2.407h-11.759v3.207h11.759c3.031 0 5.487-2.515 5.487-5.614 0-3.1-2.456-5.612-5.487-5.612h-4.392c-1.295 0-2.351-1.077-2.351-2.404 0-1.329 1.056-2.405 2.351-2.405h18.973v16.035h3.136V24.31h8.896c2.902-2.726 9.603-3.207 9.603-3.207ZM9.277 37.138c-3.416 0-6.185-2.874-6.185-6.416 0-3.541 2.77-6.412 6.185-6.412 1.707 0 3.254.718 4.374 1.879l2.186-2.268c-1.678-1.741-3.999-2.819-6.56-2.819C4.153 21.102 0 25.41 0 30.722c0 5.315 4.153 9.623 9.277 9.623 2.561 0 4.882-1.08 6.56-2.82L13.65 35.26c-1.12 1.16-2.667 1.878-4.374 1.878ZM25.357 30.722H19.79V24.31h5.566c1.708 0 3.092 1.436 3.092 3.206 0 1.771-1.384 3.206-3.092 3.206Zm6.186-3.206c0-3.542-2.771-6.413-6.186-6.413h-8.659v19.242h3.093V33.93h4.61l3.57 6.415h3.572l-3.838-6.895c2.251-.96 3.838-3.254 3.838-5.934ZM67.412 30.722h-5.565V24.31h5.565c1.71 0 3.094 1.436 3.094 3.206s-1.384 3.206-3.094 3.206Zm0-9.62H46.385v16.036H35.873v-4.575h3.71v-3.205h-3.71V24.31h9.276v-3.207H32.78v19.242h24.738v-3.207h-8.041v-4.575h3.71v-3.205h-3.71V24.31h9.276v16.035h3.094V33.93h5.565c3.418 0 6.185-2.872 6.185-6.414s-2.767-6.413-6.184-6.413ZM85.968 37.138h-8.041v-4.575h3.712v-3.205h-3.712V24.31h8.04v-3.207H74.836v19.242h11.133v-3.207ZM100.018 31.485h-7.866v-7.816h7.866c2.081 0 3.77 1.75 3.77 3.908s-1.689 3.908-3.77 3.908Zm9.697-.24v-9.01c-.961-1.166-2.506-2.456-8.131-2.456h-9.432c-2.531 0-5.49-.52-5.49-.52s.426 1.944.426 4.41v22.046h5.064V35.373h7.035s5.465 7.216 15.424 12.709c-7.976-9.85-8.493-13.73-8.493-13.73 1.417-.686 2.784-1.904 3.597-3.107Z" fill="#fff"/></svg>
