<svg width="212" height="69" fill="none" xmlns="http://www.w3.org/2000/svg"><path d="M67.035 35.81c.052 0-16.209-9.346-16.257-9.621-.367-1.987-.83-5.267-3.074-6.965-1.93-1.447-14.962-7.422-14.988-7.484A87.354 87.354 0 0 1 26.354.406a14.182 14.182 0 0 0-4.143 4.94 14.133 14.133 0 0 0-1.523 6.258 34.123 34.123 0 0 0-17.323 7.818c12.741-2.91 16.41-.227 16.41-.227A38.45 38.45 0 0 0 7.88 23.41C2.45 26.387 0 29.96 0 29.96s12.333-3.515 21.799-.095a21.109 21.109 0 0 0-11.72 5.71C29.697 38 39.372 54.97 43.442 68.683 44.94 44.292 32.756 35.03 32.756 35.03c3.538.253 7.987 2.994 10.833 7.074 8.679-.975 13.51 1.675 13.47 1.675-.096 0 4.692-1.466 8.068-3.017-.29-.436-1.512-1.95-2.206-2.796.095.007 2.765-.15 4.114-2.156ZM39.938 25.016c.191-.048 4.442-1.239 5.656-.78 1.103.413 1.125 3.543 1.125 3.543s-2.52.352-6.781-2.763ZM89.147 26.751c-4.207 0-8.458 2.932-8.458 8.5s4.243 8.467 8.435 8.467 8.436-2.906 8.436-8.467c0-5.56-4.236-8.5-8.413-8.5Zm-.03 13.657c-2.317 0-4.663-1.759-4.663-5.131 0-3.427 2.361-5.22 4.693-5.22 2.728 0 4.633 2.122 4.633 5.161 0 3.409-2.346 5.19-4.663 5.19ZM180.282 26.751c-4.207 0-8.458 2.932-8.458 8.5s4.244 8.467 8.436 8.467 8.432-2.906 8.432-8.467c0-5.56-4.233-8.5-8.41-8.5Zm-.029 13.657c-2.321 0-4.663-1.759-4.663-5.131 0-3.427 2.361-5.22 4.692-5.22 2.725 0 4.629 2.122 4.629 5.161 0 3.409-2.342 5.19-4.658 5.19ZM107.241 43.66h-.912l-.062-.124-8.101-16.36h4.225l4.438 9.985 4.442-9.984h4.13l-8.16 16.483ZM124.27 43.718c-5.034 0-8.284-3.335-8.284-8.496 0-4.908 3.419-8.471 8.13-8.471 4.71 0 7.682 3.299 7.682 8.43v1.097h-12.01c.368 2.697 1.986 4.12 4.725 4.12a5.959 5.959 0 0 0 4.413-1.859l.172-.172 2.034 2.445-.132.146c-1.714 1.888-3.858 2.76-6.73 2.76Zm-4.412-10.168h8.13c-.338-2.316-1.754-3.64-3.909-3.64s-3.728 1.42-4.221 3.64ZM164.356 43.66h-.938l-4.104-9.893-4.104 9.893h-.97l-6.608-16.483h4.023l3.327 9.167 3.876-9.259h.967l3.964 9.259 3.24-9.168h3.997l-6.67 16.484ZM144.653 27.202h-.158a6.582 6.582 0 0 0-5.725 3.017l-.077-3.046h-3.552v16.153h3.677v-7.66c0-1.58.82-2.856 2.309-3.728 1.379-.806 3.287-1.177 4.549-.865-.291-1.162-1.023-3.87-1.023-3.87ZM204.591 43.326h-3.677V30.391h-3.265l.842-3.218h2.423v-.887c0-3.776 2.17-6.03 5.81-6.03a7.006 7.006 0 0 1 4.145 1.272l.169.12-1.633 2.764-.206-.168a3.36 3.36 0 0 0-2.24-.818c-1.503 0-2.368.99-2.368 2.72v1.037h5.311v3.219h-5.311v12.924ZM195.267 43.326h-3.677V20.648h3.677v22.678Z" fill="#fff"/></svg>
